<svg width="64" height="11" viewBox="0 0 64 11" fill="none" xmlns="http://www.w3.org/2000/svg">
<g id="Tatcha 1">
<path id="Vector" d="M9.95115 1.36666C10.2335 1.35315 10.5159 1.35315 10.7982 1.35991C12.9268 1.5356 14.6137 3.11004 14.8019 5.09668C14.8092 5.33994 14.8092 5.58996 14.8019 5.83322C14.715 6.67788 14.353 7.47524 13.7666 8.11718C12.9412 9.02941 11.667 9.58351 10.3783 9.54297C9.75568 9.54972 9.13304 9.42134 8.56833 9.17132C7.71401 8.79967 7.01174 8.18475 6.56286 7.41443C6.26603 6.91439 6.09227 6.36705 6.04159 5.79944C6.04159 5.46833 6.01987 5.13047 6.07779 4.80612C6.3891 2.9749 7.97465 1.56263 9.95115 1.36666ZM10.0163 1.99509C9.55296 2.04239 9.09684 2.17078 8.68416 2.38026C6.86694 3.27222 6.17191 5.37373 7.12758 7.0698C7.4027 7.54957 7.78641 7.96852 8.26425 8.27936C9.54572 9.13077 11.2688 9.13753 12.5575 8.29287C14.2372 7.19144 14.6426 5.02235 13.4625 3.45466C12.6806 2.41404 11.3557 1.85995 10.0163 1.99509ZM9.17648 2.77218C9.24164 2.71812 9.32852 2.7046 9.40816 2.73839C9.6688 2.83975 9.93667 2.93435 10.1973 3.05598C10.0018 3.23167 9.82083 3.40736 9.62536 3.58305C9.58916 3.61684 9.53848 3.6709 9.56744 3.72495C9.58916 3.77901 9.65432 3.80604 9.71224 3.78577C9.72672 3.77901 9.7412 3.77225 9.75568 3.75874C9.97287 3.55602 10.1901 3.34655 10.4145 3.15059C10.6172 3.34655 10.8344 3.52223 11.0444 3.7182C11.0878 3.75198 11.124 3.80604 11.1892 3.79928C11.2471 3.79928 11.2978 3.75198 11.2978 3.69117C11.2978 3.66414 11.2833 3.63711 11.2616 3.61684C11.0516 3.42763 10.8417 3.24519 10.6317 3.04923C10.8996 2.94787 11.1675 2.83299 11.4426 2.73163C11.5222 2.7046 11.6091 2.72488 11.667 2.77894C11.848 2.96138 12.0363 3.13707 12.2245 3.31276C12.2969 3.38033 12.2462 3.48845 12.1811 3.54251C11.7032 3.99524 11.2181 4.44798 10.7403 4.90072C10.6607 4.82639 10.581 4.75206 10.5014 4.67773C10.4652 4.63719 10.4 4.63719 10.3566 4.67097C10.2625 4.7453 10.1901 4.83315 10.096 4.90748C9.64708 4.47501 9.18372 4.0493 8.73484 3.62359C8.66244 3.57629 8.61177 3.50872 8.56833 3.43439C8.55385 3.37357 8.58281 3.31952 8.63349 3.27897C8.82172 3.1168 9.00272 2.94111 9.17648 2.77218ZM8.13393 3.75874C8.20633 3.69117 8.32217 3.73847 8.38733 3.79253C8.82896 4.20472 9.2706 4.61691 9.71948 5.02235C9.77016 5.06289 9.8136 5.10344 9.84979 5.15074C9.76292 5.22507 9.67604 5.30616 9.5964 5.38724C9.56744 5.42779 9.56744 5.48184 9.61088 5.51563C9.69052 5.58996 9.77016 5.66429 9.84979 5.73862C9.35748 6.19136 8.86516 6.65085 8.37285 7.10359C8.32217 7.15765 8.22081 7.19144 8.15565 7.13738C7.95293 6.96845 7.76469 6.786 7.56921 6.61031C7.49681 6.54949 7.48233 6.45489 7.51853 6.38056C7.62713 6.13054 7.73573 5.88728 7.85881 5.64402C8.03981 5.82647 8.23529 5.9954 8.42353 6.17784C8.46697 6.21839 8.53213 6.26569 8.59005 6.22514C8.64796 6.19812 8.66968 6.1373 8.64072 6.09C8.63348 6.07649 8.62624 6.06297 8.61176 6.05621C8.39457 5.84674 8.17013 5.65078 7.95293 5.4413C8.16289 5.24534 8.35837 5.04262 8.56833 4.84666C8.59729 4.81288 8.6552 4.77909 8.64796 4.72503C8.64796 4.67097 8.59729 4.62367 8.53213 4.62367C8.51041 4.62367 8.48145 4.63043 8.46697 4.6507C8.25701 4.84666 8.06153 5.04938 7.85157 5.24534C7.73573 4.99532 7.61989 4.73854 7.51129 4.48852C7.48233 4.41419 7.49681 4.33311 7.56197 4.27905L8.13393 3.75874ZM12.4562 3.79928C12.5069 3.75198 12.5793 3.70468 12.6517 3.73171C12.7023 3.75874 12.7458 3.79928 12.7892 3.83983C12.9557 3.99524 13.1222 4.1439 13.2888 4.29256C13.3467 4.34662 13.3612 4.43447 13.325 4.50204C13.2164 4.75206 13.1078 4.99532 12.9919 5.24534C12.7892 5.06289 12.5937 4.87369 12.391 4.68449C12.3476 4.64394 12.2752 4.63719 12.2317 4.67773C12.1883 4.71827 12.1811 4.78584 12.2245 4.82639L12.2317 4.83315C12.4489 5.03586 12.6734 5.23858 12.8906 5.44806C12.6661 5.65753 12.4489 5.87377 12.2317 6.09C12.1883 6.13054 12.1883 6.19811 12.2317 6.23866C12.2752 6.2792 12.3476 6.2792 12.391 6.23866C12.391 6.23866 12.391 6.23866 12.3983 6.2319C12.601 6.0427 12.7892 5.83998 12.9992 5.65078C13.115 5.9008 13.2308 6.15082 13.3394 6.40083C13.3756 6.47516 13.3539 6.56301 13.2888 6.61031C13.1005 6.77924 12.9123 6.95493 12.7168 7.12386C12.6372 7.19819 12.5141 7.14413 12.4489 7.07656C11.9711 6.63058 11.486 6.19136 11.0082 5.73862C11.0878 5.66429 11.1747 5.58996 11.2543 5.51563C11.2978 5.48184 11.305 5.41427 11.2616 5.37373C11.1819 5.29264 11.0951 5.21831 11.0082 5.13722C11.486 4.698 11.9711 4.25202 12.4562 3.79928ZM8.8 7.20495C9.22716 6.79951 9.66156 6.39408 10.0887 5.98864C10.1828 6.06973 10.2625 6.16433 10.3638 6.23866C10.4073 6.26569 10.4652 6.25217 10.4941 6.21839C10.5738 6.15081 10.6534 6.06973 10.7331 5.9954C11.2181 6.45489 11.7032 6.90763 12.1883 7.36712C12.2535 7.42118 12.2824 7.52254 12.21 7.58336C12.029 7.7658 11.8408 7.94149 11.6598 8.11718C11.6091 8.178 11.515 8.19827 11.4353 8.17124C11.1602 8.07664 10.8923 7.96176 10.6172 7.85365C10.8199 7.65769 11.0371 7.47524 11.2326 7.27252C11.3123 7.18468 11.1675 7.05629 11.0806 7.13062C10.8489 7.33334 10.6317 7.54957 10.4 7.75905C10.1901 7.56308 9.97287 7.38064 9.76292 7.18468C9.72672 7.15089 9.69052 7.10359 9.6326 7.11035C9.56744 7.11035 9.51676 7.15765 9.51676 7.21846V7.22522C9.53848 7.27928 9.58192 7.32658 9.6326 7.36037C9.8136 7.52254 10.0018 7.68472 10.1828 7.85365C9.91495 7.96176 9.64708 8.06988 9.3792 8.17124C9.29232 8.20503 9.1982 8.178 9.14028 8.11042C8.96652 7.93473 8.77828 7.7658 8.60453 7.59011C8.55385 7.54281 8.55385 7.46848 8.59729 7.41443C8.6552 7.3401 8.7276 7.27252 8.8 7.20495Z" fill="#03101D"/>
<g id="Vector_2">
<path d="M32.0193 3.58884C33.0257 3.58884 34.0393 3.58884 35.0456 3.58884C35.0456 3.72399 35.0456 3.85913 35.0456 4.00104C34.6185 4.00104 34.1986 4.00104 33.7786 4.00104C33.7786 5.0822 33.7786 6.16337 33.7786 7.24453L33.337 7.23777C33.3442 6.15661 33.337 5.0822 33.337 4.00104C32.8954 4.00104 32.4537 4.00104 32.0121 4.00104C32.0121 3.86589 32.0121 3.73075 32.0193 3.58884ZM39.1652 5.73766C38.9624 4.75785 39.7443 3.72399 40.7941 3.5483C41.4819 3.4064 42.2132 3.62939 42.7127 4.08212C42.6041 4.19024 42.5028 4.29836 42.3942 4.40647C41.996 4.06861 41.453 3.81183 40.9027 3.95374C40.1353 4.08888 39.5633 4.81191 39.643 5.53494C39.6719 6.29175 40.4249 6.95397 41.243 6.92018C41.6774 6.93369 42.0611 6.70395 42.3797 6.45393C42.4738 6.54853 42.5679 6.64313 42.6548 6.75125C42.2856 7.2175 41.605 7.37967 41.0113 7.33237C40.1063 7.27156 39.3099 6.57556 39.1652 5.73766ZM47.1942 3.58884H47.6286C47.6286 4.4808 47.6286 5.36601 47.6286 6.25797C48.3526 6.25797 49.0839 6.25797 49.8151 6.25797C49.8151 5.37276 49.8151 4.4808 49.8151 3.5956C49.9527 3.5956 50.0975 3.58884 50.235 3.58884C50.2423 4.81191 50.2423 6.03498 50.235 7.25804L49.8151 7.23101C49.8151 7.04181 49.8151 6.85261 49.8151 6.6634C49.0839 6.6634 48.3599 6.67016 47.6286 6.6634C47.6286 6.85261 47.6286 7.04857 47.6286 7.23777L47.187 7.25804C47.187 6.03498 47.187 4.81867 47.187 3.5956M17.9087 3.58884C18.915 3.58884 19.9142 3.58884 20.9205 3.58884C20.9205 3.6902 20.9205 3.89292 20.9205 3.99428C20.5006 4.00104 20.0807 4.00104 19.6608 3.99428C19.6608 5.0822 19.668 6.17012 19.6608 7.25804C19.5087 7.25804 19.3639 7.25804 19.2119 7.25129C19.2046 6.16336 19.2119 5.0822 19.2046 3.99428C18.7702 3.99428 18.3431 3.99428 17.9087 4.00104C17.9087 3.86589 17.9087 3.72399 17.9087 3.58884ZM24.4898 7.27832C25.1486 6.02822 25.793 4.76461 26.4808 3.52803C27.1107 4.78488 27.7984 6.01471 28.4211 7.27832C28.2546 7.27832 28.088 7.25804 27.9288 7.2175C27.8057 7.05532 27.7333 6.86612 27.5957 6.71746C26.8283 6.69043 26.0609 6.71746 25.2862 6.7107C25.1993 6.88639 25.0979 7.06208 24.9894 7.22426C24.8228 7.24453 24.6563 7.2648 24.4898 7.27832ZM25.4889 6.29851C26.1333 6.29175 26.7776 6.29175 27.4292 6.29851C27.1107 5.67008 26.7776 5.04841 26.4735 4.41323C26.1188 5.0349 25.8147 5.67684 25.4889 6.29851ZM56.3455 3.53478C57.0188 4.77137 57.6704 6.02146 58.3003 7.27832C58.1338 7.27156 57.9673 7.25129 57.8008 7.2175C57.6849 7.05532 57.5836 6.87964 57.4967 6.70395C56.722 6.71071 55.9401 6.71071 55.1654 6.70395C55.0713 6.87964 54.9772 7.05533 54.8831 7.23101C54.7093 7.24453 54.5355 7.25804 54.369 7.27156C55.0206 6.02146 55.6722 4.77812 56.3455 3.53478ZM55.3536 6.29851C56.0052 6.29851 56.6496 6.29851 57.3012 6.29851C56.9826 5.67684 56.6568 5.04841 56.3455 4.41999C55.998 5.04166 55.7012 5.6836 55.3536 6.29851Z" fill="#03101D"/>
<path d="M47.1942 3.58884H47.6286C47.6286 4.4808 47.6286 5.36601 47.6286 6.25797C48.3526 6.25797 49.0839 6.25797 49.8151 6.25797C49.8151 5.37276 49.8151 4.4808 49.8151 3.5956C49.9527 3.5956 50.0975 3.58884 50.235 3.58884C50.2423 4.81191 50.2423 6.03498 50.235 7.25804L49.8151 7.23101C49.8151 7.04181 49.8151 6.85261 49.8151 6.6634C49.0839 6.6634 48.3599 6.67016 47.6286 6.6634C47.6286 6.85261 47.6286 7.04857 47.6286 7.23777L47.187 7.25804C47.187 6.03498 47.187 4.81867 47.187 3.5956M32.0193 3.58884C33.0257 3.58884 34.0393 3.58884 35.0456 3.58884C35.0456 3.72399 35.0456 3.85913 35.0456 4.00104C34.6185 4.00104 34.1986 4.00104 33.7786 4.00104C33.7786 5.0822 33.7786 6.16337 33.7786 7.24453L33.337 7.23777C33.3442 6.15661 33.337 5.0822 33.337 4.00104C32.8954 4.00104 32.4537 4.00104 32.0121 4.00104C32.0121 3.86589 32.0121 3.73075 32.0193 3.58884ZM39.1652 5.73766C38.9624 4.75785 39.7443 3.72399 40.7941 3.5483C41.4819 3.4064 42.2132 3.62939 42.7127 4.08212C42.6041 4.19024 42.5028 4.29836 42.3942 4.40647C41.996 4.06861 41.453 3.81183 40.9027 3.95374C40.1353 4.08888 39.5633 4.81191 39.643 5.53494C39.6719 6.29175 40.4249 6.95397 41.243 6.92018C41.6774 6.93369 42.0611 6.70395 42.3797 6.45393C42.4738 6.54853 42.5679 6.64313 42.6548 6.75125C42.2856 7.2175 41.605 7.37967 41.0113 7.33237C40.1063 7.27156 39.31 6.57556 39.1652 5.73766ZM17.9087 3.58884C18.915 3.58884 19.9142 3.58884 20.9205 3.58884C20.9205 3.6902 20.9205 3.89292 20.9205 3.99428C20.5006 4.00104 20.0807 4.00104 19.6608 3.99428C19.6608 5.0822 19.668 6.17012 19.6608 7.25804C19.5087 7.25804 19.3639 7.25804 19.2119 7.25129C19.2046 6.16336 19.2119 5.0822 19.2046 3.99428C18.7702 3.99428 18.3431 3.99428 17.9087 4.00104C17.9087 3.86589 17.9087 3.72399 17.9087 3.58884ZM24.4898 7.27832C25.1486 6.02822 25.793 4.76461 26.4808 3.52803C27.1107 4.78488 27.7984 6.01471 28.4211 7.27832C28.2546 7.27832 28.088 7.25804 27.9288 7.2175C27.8057 7.05532 27.7333 6.86612 27.5957 6.71746C26.8283 6.69043 26.0609 6.71746 25.2862 6.7107C25.1993 6.88639 25.0979 7.06208 24.9894 7.22426C24.8228 7.24453 24.6563 7.2648 24.4898 7.27832ZM25.4889 6.29851C26.1333 6.29175 26.7776 6.29175 27.4292 6.29851C27.1107 5.67008 26.7776 5.04841 26.4735 4.41323C26.1188 5.0349 25.8147 5.67684 25.4889 6.29851ZM56.3455 3.53478C57.0188 4.77137 57.6704 6.02146 58.3003 7.27832C58.1338 7.27156 57.9673 7.25129 57.8008 7.2175C57.6849 7.05532 57.5836 6.87964 57.4967 6.70395C56.722 6.7107 55.9401 6.7107 55.1654 6.70395C55.0713 6.87964 54.9772 7.05533 54.8831 7.23101C54.7093 7.24453 54.5355 7.25804 54.369 7.27156C55.0206 6.02146 55.6722 4.77812 56.3455 3.53478ZM55.3536 6.29851C56.0052 6.29851 56.6496 6.29851 57.3012 6.29851C56.9826 5.67684 56.6568 5.04841 56.3455 4.41999C55.998 5.04166 55.7012 5.6836 55.3536 6.29851Z" stroke="#03101D" stroke-width="0.125118"/>
</g>
</g>
</svg>
